<?xml version="1.0" encoding="utf-8"?>
<!-- Generator: Adobe Illustrator 19.0.0, SVG Export Plug-In . SVG Version: 6.00 Build 0)  -->
<svg version="1.1" id="Layer_1" xmlns="http://www.w3.org/2000/svg" xmlns:xlink="http://www.w3.org/1999/xlink" x="0px" y="0px"
	 viewBox="0 0 800 600" style="enable-background:new 0 0 800 600;" xml:space="preserve">
<style type="text/css">
	.st0{fill:#FFFFFF;stroke:#000000;stroke-miterlimit:10;}
	.st1{fill:#31BBB1;stroke:#000000;stroke-miterlimit:10;}
</style>
<polygon id="XMLID_483_" class="st0" points="417.9,89.5 405.7,46.4 434.6,52.3 "/>
<polygon id="XMLID_482_" class="st0" points="422.4,86.3 439.1,51.7 474.5,46.4 "/>
<polygon id="XMLID_481_" class="st0" points="441.9,76.4 478.7,47.4 538.8,57.7 528.6,64.7 "/>
<polygon id="XMLID_480_" class="st0" points="412.3,83 403.7,51.7 401.7,57.1 401.7,70 "/>
<polygon id="XMLID_479_" class="st0" points="421.2,91.3 438.1,79.6 429.7,102.8 "/>
<polygon id="XMLID_478_" class="st0" points="441.9,79.6 529.4,67.9 468.2,101.8 "/>
<polygon id="XMLID_477_" class="st0" points="440.5,83 420.1,141.8 463.2,139.4 "/>
<polygon id="XMLID_476_" class="st0" points="446.5,87.5 482.1,121.9 468,137.2 "/>
<polygon id="XMLID_475_" class="st0" points="511.3,83 535.6,67.9 552.7,93.1 "/>
<polygon id="XMLID_474_" class="st0" points="487.1,120.9 478.7,112.4 499.2,103.8 "/>
<polygon id="XMLID_473_" class="st0" points="490.3,120.9 501.6,104.8 541.5,118.7 "/>
<polygon id="XMLID_472_" class="st0" points="522.5,123.1 535.6,122.1 544.3,133.3 "/>
<polygon id="XMLID_471_" class="st0" points="401.7,103.8 401.7,144.9 416.6,141.8 "/>
<polygon id="XMLID_470_" class="st0" points="418.3,137.2 428.7,106.3 401.7,93.9 "/>
<polygon id="XMLID_469_" class="st0" points="557.6,131.3 563.2,106.6 583.1,101.8 "/>
<polygon id="XMLID_468_" class="st0" points="558.4,134.7 583.1,106.6 609.2,145.6 "/>
<polygon id="XMLID_467_" class="st0" points="490.3,148.8 525.6,167.6 508,137.2 "/>
<polygon id="XMLID_466_" class="st0" points="564.7,79.6 545.9,66.3 578.1,51.7 "/>
<polygon id="XMLID_465_" class="st0" points="570.4,76.4 583.1,49.4 609.2,46.4 "/>
<polygon id="XMLID_464_" class="st0" points="592.9,65.7 615.1,46.4 641.5,50.8 "/>
<polygon id="XMLID_463_" class="st0" points="603,66.4 646.1,53.5 663.7,72.9 "/>
<polygon id="XMLID_462_" class="st0" points="643.5,74.2 668.1,77 677.8,95.8 "/>
<polygon id="XMLID_461_" class="st0" points="647.5,81.7 675.5,98.5 663.7,120.9 "/>
<polygon id="XMLID_460_" class="st0" points="649.4,120.1 654.6,108.8 660,120.9 "/>
<polygon id="XMLID_459_" class="st0" points="426.3,144.9 455.1,143 441.7,153.7 "/>
<polygon id="XMLID_458_" class="st0" points="620.9,186.4 652.7,199.9 660,231.3 "/>
<polygon id="XMLID_457_" class="st0" points="624.7,198.1 661.8,238.9 646.3,254.8 "/>
<polygon id="XMLID_456_" class="st0" points="650.1,256.6 663.6,242.8 661.8,260.5 "/>
<polygon id="XMLID_455_" class="st0" points="649,269.2 658.7,280.6 668.8,280.6 "/>
<polygon id="XMLID_454_" class="st0" points="548.9,156.5 570.4,176.8 564.8,156.5 "/>
<polygon id="XMLID_453_" class="st0" points="578.1,184.4 587.9,174.4 599,196.3 "/>
<polygon id="XMLID_452_" class="st0" points="520.1,190.7 533.4,203.1 534.8,187.4 "/>
<polygon id="XMLID_451_" class="st0" points="501.6,193.5 518.9,195.2 520.1,213.8 "/>
<polygon id="XMLID_450_" class="st0" points="523.2,210.4 522.1,197.3 530.6,205.6 "/>
<polygon id="XMLID_449_" class="st0" points="573.4,205.1 620.9,238.9 611.8,212.6 "/>
<polygon id="XMLID_448_" class="st0" points="582.7,218.8 623.5,245.6 629.6,282 "/>
<polygon id="XMLID_447_" class="st0" points="579.9,224.2 626.8,286 573.4,258.8 "/>
<polygon id="XMLID_446_" class="st0" points="570.4,249 574.6,228.1 539.4,226.4 "/>
<polygon id="XMLID_445_" class="st0" points="586.8,311 595.1,286 629.6,304.5 "/>
<polygon id="XMLID_444_" class="st0" points="590.4,314.3 631.2,308.4 623.5,327.4 "/>
<polygon id="XMLID_443_" class="st0" points="555.2,295.5 573.4,282 582.7,311 "/>
<polygon id="XMLID_442_" class="st0" points="574.6,278.5 578.8,270.5 592.8,281.6 "/>
<polygon id="XMLID_441_" class="st0" points="422,199.1 436.5,196.3 434,203.9 "/>
<polygon id="XMLID_440_" class="st0" points="437.3,201.5 439.7,193.5 450.9,188.1 447.7,196.3 "/>
<polygon id="XMLID_439_" class="st0" points="451.7,181.2 455.1,168.9 467.4,181.2 "/>
<polygon id="XMLID_438_" class="st0" points="451.7,184 469.5,183.6 476.7,197.3 "/>
<polygon id="XMLID_437_" class="st0" points="455.1,189.5 478.4,201.5 466,218.3 "/>
<polygon id="XMLID_436_" class="st0" points="457.6,208.6 463.1,220.4 445.5,223 "/>
<polygon id="XMLID_435_" class="st0" points="468.7,219.6 479.8,205.1 489.5,236.5 "/>
<polygon id="XMLID_434_" class="st0" points="470,225.7 490.7,241.5 473.6,257.9 "/>
<polygon id="XMLID_433_" class="st0" points="473.6,261.8 490.7,246.2 492.5,271.1 "/>
<polygon id="XMLID_432_" class="st0" points="474.5,266.6 492.5,273.8 489.5,301.5 478.4,284 "/>
<polygon id="XMLID_431_" class="st0" points="401.7,147.6 401.7,154.9 410.8,156 "/>
<polygon id="XMLID_430_" class="st0" points="407.3,148.3 415.2,156.5 424.2,157.1 423.3,151.8 "/>
<polygon id="XMLID_429_" class="st0" points="426.7,152.7 427.4,159 436.5,163.9 442.6,160.2 "/>
<polygon id="XMLID_428_" class="st0" points="574.6,355.5 585.3,347.7 592.8,367.4 "/>
<polygon id="XMLID_427_" class="st0" points="578.4,327.4 586.8,319.7 600.1,340 "/>
<polygon id="XMLID_426_" class="st0" points="658.9,193.5 651.5,168.9 680.5,137.2 661.5,174.4 "/>
<polygon id="XMLID_425_" class="st0" points="649.4,51.7 666.7,72.9 673.1,58.5 "/>
<polygon id="XMLID_424_" class="st0" points="669.6,74.2 674,65.7 681.2,71.5 681.2,94.5 "/>
<polygon id="XMLID_423_" class="st0" points="409.2,41.6 435.8,41.6 455.2,30.3 "/>
<polygon id="XMLID_422_" class="st0" points="457.2,33.4 475.3,29.3 509.9,38.4 "/>
<polygon id="XMLID_421_" class="st0" points="515.9,38.4 552.7,54.9 566.6,48.6 "/>
<polygon id="XMLID_420_" class="st0" points="656.9,408.1 672.6,377.7 667.6,403.8 "/>
<polygon id="XMLID_419_" class="st0" points="382,89.5 394.2,46.4 365.3,52.3 "/>
<polygon id="XMLID_418_" class="st0" points="377.5,86.3 360.8,51.7 325.4,46.4 "/>
<polygon id="XMLID_417_" class="st0" points="358,76.4 321.2,47.4 261.1,57.7 271.3,64.7 "/>
<polygon id="XMLID_416_" class="st0" points="387.6,83 396.2,51.7 398.1,57.1 398.1,70 "/>
<polygon id="XMLID_415_" class="st0" points="378.7,91.3 361.8,79.6 370.2,102.8 "/>
<polygon id="XMLID_414_" class="st0" points="358,79.6 270.5,67.9 331.7,101.8 "/>
<polygon id="XMLID_413_" class="st0" points="359.4,83 379.8,141.8 336.7,139.4 "/>
<polygon id="XMLID_412_" class="st0" points="353.4,87.5 317.8,121.9 331.9,137.2 "/>
<polygon id="XMLID_411_" class="st0" points="288.6,83 264.3,67.9 247.2,93.1 "/>
<polygon id="XMLID_410_" class="st0" points="312.8,120.9 321.2,112.4 300.7,103.8 "/>
<polygon id="XMLID_409_" class="st0" points="309.6,120.9 298.3,104.8 258.4,118.7 "/>
<polygon id="XMLID_408_" class="st0" points="277.4,123.1 264.3,122.1 255.6,133.3 "/>
<polygon id="XMLID_407_" class="st0" points="398.1,103.8 398.1,144.9 383.3,141.8 "/>
<polygon id="XMLID_406_" class="st0" points="381.6,137.2 371.2,106.3 398.1,93.9 "/>
<polygon id="XMLID_405_" class="st0" points="242.2,131.3 236.7,106.6 216.8,101.8 "/>
<polygon id="XMLID_404_" class="st0" points="241.5,134.7 216.8,106.6 190.7,145.6 "/>
<polygon id="XMLID_403_" class="st0" points="309.6,148.8 274.3,167.6 291.9,137.2 "/>
<polygon id="XMLID_402_" class="st0" points="235.2,79.6 254,66.3 221.8,51.7 "/>
<polygon id="XMLID_401_" class="st0" points="229.5,76.4 216.8,49.4 190.7,46.4 "/>
<polygon id="XMLID_400_" class="st0" points="207,65.7 184.8,46.4 158.4,50.8 "/>
<polygon id="XMLID_399_" class="st0" points="196.9,66.4 153.8,53.5 136.2,72.9 "/>
<polygon id="XMLID_398_" class="st0" points="156.4,74.2 131.8,77 122.1,95.8 "/>
<polygon id="XMLID_397_" class="st0" points="152.4,81.7 124.4,98.5 136.2,120.9 "/>
<polygon id="XMLID_396_" class="st0" points="150.5,120.1 145.3,108.8 139.9,120.9 "/>
<polygon id="XMLID_395_" class="st0" points="373.6,144.9 344.8,143 358.2,153.7 "/>
<polygon id="XMLID_394_" class="st0" points="179,186.4 147.2,199.9 139.9,231.3 "/>
<polygon id="XMLID_393_" class="st0" points="175.2,198.1 138,238.9 153.6,254.8 "/>
<polygon id="XMLID_392_" class="st0" points="149.8,256.6 136.3,242.8 138,260.5 "/>
<polygon id="XMLID_391_" class="st0" points="150.9,269.2 141.2,280.6 131.1,280.6 "/>
<polygon id="XMLID_390_" class="st0" points="251,156.5 229.5,176.8 235.1,156.5 "/>
<polygon id="XMLID_389_" class="st0" points="221.8,184.4 212,174.4 200.9,196.3 "/>
<polygon id="XMLID_388_" class="st0" points="279.8,190.7 266.5,203.1 265.1,187.4 "/>
<polygon id="XMLID_387_" class="st0" points="298.3,193.5 281,195.2 279.8,213.8 "/>
<polygon id="XMLID_386_" class="st0" points="276.6,210.4 277.8,197.3 269.3,205.6 "/>
<polygon id="XMLID_385_" class="st0" points="226.5,205.1 179,238.9 188.1,212.6 "/>
<polygon id="XMLID_384_" class="st0" points="217.2,218.8 176.4,245.6 170.3,282 "/>
<polygon id="XMLID_383_" class="st0" points="220,224.2 173.1,286 226.5,258.8 "/>
<polygon id="XMLID_382_" class="st0" points="229.5,249 225.3,228.1 260.5,226.4 "/>
<polygon id="XMLID_381_" class="st0" points="213.1,311 204.8,286 170.3,304.5 "/>
<polygon id="XMLID_380_" class="st0" points="209.5,314.3 168.7,308.4 176.4,327.4 "/>
<polygon id="XMLID_379_" class="st0" points="244.7,295.5 226.5,282 217.2,311 "/>
<polygon id="XMLID_378_" class="st0" points="225.3,278.5 221.1,270.5 207,281.6 "/>
<polygon id="XMLID_377_" class="st0" points="377.9,199.1 363.3,196.3 365.9,203.9 "/>
<polygon id="XMLID_376_" class="st0" points="362.6,201.5 360.2,193.5 349,188.1 352.2,196.3 "/>
<polygon id="XMLID_375_" class="st0" points="348.2,181.2 344.8,168.9 332.5,181.2 "/>
<polygon id="XMLID_374_" class="st0" points="348.2,184 330.4,183.6 323.2,197.3 "/>
<polygon id="XMLID_373_" class="st0" points="344.8,189.5 321.5,201.5 333.9,218.3 "/>
<polygon id="XMLID_372_" class="st0" points="342.3,208.6 336.8,220.4 354.3,223 "/>
<polygon id="XMLID_371_" class="st0" points="331.2,219.6 320,205.1 310.4,236.5 "/>
<polygon id="XMLID_370_" class="st0" points="329.9,225.7 309.2,241.5 326.3,257.9 "/>
<polygon id="XMLID_369_" class="st0" points="326.3,261.8 309.2,246.2 307.4,271.1 "/>
<polygon id="XMLID_368_" class="st0" points="325.4,266.6 307.4,273.8 310.4,301.5 321.5,284 "/>
<polygon id="XMLID_367_" class="st0" points="398.1,147.6 398.1,154.9 389.1,156 "/>
<polygon id="XMLID_366_" class="st0" points="392.6,148.3 384.7,156.5 375.7,157.1 376.6,151.8 "/>
<polygon id="XMLID_365_" class="st0" points="373.2,152.7 372.5,159 363.3,163.9 357.3,160.2 "/>
<polygon id="XMLID_364_" class="st0" points="225.3,355.5 214.6,347.7 207,367.4 "/>
<polygon id="XMLID_363_" class="st0" points="221.5,327.4 213.1,319.7 199.8,340 "/>
<polygon id="XMLID_362_" class="st0" points="141,193.5 148.4,168.9 119.4,137.2 138.4,174.4 "/>
<polygon id="XMLID_361_" class="st0" points="150.5,51.7 133.2,72.9 126.8,58.5 "/>
<polygon id="XMLID_360_" class="st0" points="130.3,74.2 125.9,65.7 118.7,71.5 118.7,94.5 "/>
<polygon id="XMLID_359_" class="st0" points="390.7,41.6 364.1,41.6 344.7,30.3 "/>
<polygon id="XMLID_358_" class="st0" points="342.7,33.4 324.6,29.3 290,38.4 "/>
<polygon id="XMLID_357_" class="st0" points="284,38.4 247.2,54.9 233.3,48.6 "/>
<polygon id="XMLID_356_" class="st0" points="143,408.1 127.3,377.7 132.3,403.8 "/>
<polygon id="XMLID_355_" class="st0" points="508.7,434.9 524.6,390.8 548.9,430.2 "/>
<polygon id="XMLID_354_" class="st0" points="515.5,438.9 546.9,434.9 534.6,459.6 "/>
<path id="XMLID_353_" class="st0" d="M515.5,476.3c3.2,0,15.7-6,15.7-6l6.6,25.5L515.5,476.3z"/>
<polygon id="XMLID_352_" class="st0" points="600.1,470.3 586.8,439.3 613.7,450 "/>
<polygon id="XMLID_351_" class="st0" points="610.8,444.1 589.2,434.9 597.4,419.4 "/>
<polygon id="XMLID_350_" class="st0" points="592.8,420.7 599.3,408.9 578.7,387 586.8,412.9 "/>
<polygon id="XMLID_349_" class="st0" points="509.4,439.3 519.1,449.3 499.4,467.5 "/>
<polygon id="XMLID_348_" class="st0" points="624.9,447.3 612.7,438.3 636.8,431.7 "/>
<polygon id="XMLID_347_" class="st0" points="621.1,431.7 610.8,434.9 602.8,411.1 "/>
<polygon id="XMLID_346_" class="st0" points="602.8,404.7 609,393.4 613.7,416.6 "/>
<polygon id="XMLID_345_" class="st0" points="616.7,411.1 628.4,405.9 611.9,390.8 "/>
<polygon id="XMLID_344_" class="st0" points="626.5,398.3 607,380.6 624.1,352.8 "/>
<polygon id="XMLID_343_" class="st0" points="629.6,385.6 627.4,347.7 639.8,352.8 638.8,370.1 "/>
<polygon id="XMLID_342_" class="st0" points="639.8,348.6 629.6,345 644,324.2 655.9,323.2 "/>
<polygon id="XMLID_341_" class="st0" points="494.6,518 477.3,505.3 497.6,486 489.2,505.5 "/>
<polygon id="XMLID_340_" class="st0" points="494,502 501.8,486 506.1,494 "/>
<polygon id="XMLID_339_" class="st0" points="402.3,429 415,440.2 422.9,421.1 "/>
<polygon id="XMLID_338_" class="st0" points="420.5,434.9 427.1,419.3 435.7,425.3 "/>
<polygon id="XMLID_337_" class="st0" points="429,433.6 440.8,425.7 446.9,417.8 448.2,436.3 "/>
<polygon id="XMLID_336_" class="st0" points="635.4,98.9 605.8,87.5 643.5,80.5 "/>
<polygon id="XMLID_335_" class="st0" points="601.5,87.2 591.7,83.9 601.5,75.5 "/>
<polygon id="XMLID_334_" class="st0" points="605.3,84.9 636.1,79 605.3,74.2 "/>
<polygon id="XMLID_333_" class="st0" points="589.8,87.2 580.1,83.3 572,90.5 "/>
<polygon id="XMLID_332_" class="st0" points="576.3,93.1 591.7,90.5 592.9,101.3 "/>
<polygon id="XMLID_331_" class="st0" points="586.8,101.8 594.7,104.8 591.7,111 "/>
<polygon id="XMLID_330_" class="st0" points="461.8,272.9 461.8,252.8 449.5,270.5 "/>
<polygon id="XMLID_329_" class="st0" points="449.5,262.8 460.8,249 442.3,238.9 "/>
<polygon id="XMLID_328_" class="st0" points="461.8,243.6 436.5,231.9 444.1,226.4 464.2,223 "/>
<polygon id="XMLID_327_" class="st0" points="408.3,186.7 415.2,160 401.7,158.3 401.7,184.4 "/>
<polygon id="XMLID_326_" class="st0" points="408.5,189.5 426.3,194.8 415.2,199 "/>
<polygon id="XMLID_325_" class="st0" points="291.2,434.9 275.3,390.8 251,430.2 "/>
<polygon id="XMLID_324_" class="st0" points="284.4,438.9 253,434.9 265.3,459.6 "/>
<path id="XMLID_323_" class="st0" d="M284.4,476.3c-3.2,0-15.7-6-15.7-6l-6.6,25.5L284.4,476.3z"/>
<polygon id="XMLID_322_" class="st0" points="199.8,470.3 213.1,439.3 186.2,450 "/>
<polygon id="XMLID_321_" class="st0" points="189.1,444.1 210.7,434.9 202.5,419.4 "/>
<polygon id="XMLID_320_" class="st0" points="207,420.7 200.6,408.9 221.2,387 213.1,412.9 "/>
<polygon id="XMLID_319_" class="st0" points="290.5,439.3 280.8,449.3 300.5,467.5 "/>
<polygon id="XMLID_318_" class="st0" points="175,447.3 187.2,438.3 163.1,431.7 "/>
<polygon id="XMLID_317_" class="st0" points="178.8,431.7 189.1,434.9 197.1,411.1 "/>
<polygon id="XMLID_316_" class="st0" points="197.1,404.7 190.9,393.4 186.2,416.6 "/>
<polygon id="XMLID_315_" class="st0" points="183.2,411.1 171.5,405.9 188,390.8 "/>
<polygon id="XMLID_314_" class="st0" points="173.4,398.3 192.9,380.6 175.8,352.8 "/>
<polygon id="XMLID_313_" class="st0" points="170.3,385.6 172.4,347.7 160.1,352.8 161.1,370.1 "/>
<polygon id="XMLID_312_" class="st0" points="160.1,348.6 170.3,345 155.9,324.2 144,323.2 "/>
<polygon id="XMLID_311_" class="st0" points="305.3,518 322.6,505.3 302.3,486 310.7,505.5 "/>
<polygon id="XMLID_310_" class="st0" points="305.9,502 298.1,486 293.7,494 "/>
<polygon id="XMLID_309_" class="st0" points="397.6,429 384.9,440.2 377,421.1 "/>
<polygon id="XMLID_308_" class="st0" points="379.4,434.9 372.8,419.3 364.2,425.3 "/>
<polygon id="XMLID_307_" class="st0" points="370.9,433.6 359.1,425.7 353,417.8 351.7,436.3 "/>
<polygon id="XMLID_306_" class="st0" points="164.5,98.9 194.1,87.5 156.4,80.5 "/>
<polygon id="XMLID_305_" class="st0" points="198.3,87.2 208.2,83.9 198.3,75.5 "/>
<polygon id="XMLID_304_" class="st0" points="194.6,84.9 163.7,79 194.6,74.2 "/>
<polygon id="XMLID_303_" class="st0" points="210.1,87.2 219.8,83.3 227.9,90.5 "/>
<polygon id="XMLID_302_" class="st0" points="223.6,93.1 208.2,90.5 207,101.3 "/>
<polygon id="XMLID_301_" class="st0" points="213.1,101.8 205.2,104.8 208.2,111 "/>
<polygon id="XMLID_300_" class="st0" points="338.1,272.9 338.1,252.8 350.4,270.5 "/>
<polygon id="XMLID_299_" class="st0" points="350.4,262.8 339.1,249 357.6,238.9 "/>
<polygon id="XMLID_298_" class="st0" points="338.1,243.6 363.3,231.9 355.8,226.4 335.7,223 "/>
<polygon id="XMLID_297_" class="st0" points="391.6,186.7 384.7,160 398.1,158.3 398.1,184.4 "/>
<polygon id="XMLID_296_" class="st0" points="391.4,189.5 373.6,194.8 384.7,199 "/>
<polygon id="XMLID_295_" class="st0" points="571.3,48.1 580.9,48.7 582,40.9 "/>
<polygon id="XMLID_294_" class="st0" points="584.6,46.7 610.3,43.6 594.7,36.5 "/>
<polygon id="XMLID_293_" class="st0" points="615.7,43.6 645.5,49.4 642.7,40.9 615.7,40.3 "/>
<polygon id="XMLID_292_" class="st0" points="682.1,131.3 684.5,111 680.5,98.9 "/>
<polygon id="XMLID_291_" class="st0" points="476.3,509.1 478.1,518 465,541.5 "/>
<polygon id="XMLID_290_" class="st0" points="461.6,544.7 433.8,563.2 461.6,532.6 "/>
<polygon id="XMLID_289_" class="st0" points="427.2,567 405.5,570.9 432.8,556.6 "/>
<polygon id="XMLID_288_" class="st0" points="228.6,48.1 219,48.7 217.9,40.9 "/>
<polygon id="XMLID_287_" class="st0" points="215.3,46.7 189.5,43.6 205.2,36.5 "/>
<polygon id="XMLID_286_" class="st0" points="184.2,43.6 154.4,49.4 157.2,40.9 184.2,40.3 "/>
<polygon id="XMLID_285_" class="st0" points="117.8,131.3 115.4,111 119.4,98.9 "/>
<polygon id="XMLID_284_" class="st0" points="323.6,509.1 321.8,518 334.9,541.5 "/>
<polygon id="XMLID_283_" class="st0" points="338.3,544.7 366.1,563.2 338.3,532.6 "/>
<polygon id="XMLID_282_" class="st0" points="372.7,567 394.4,570.9 367.1,556.6 "/>
<polygon id="XMLID_281_" class="st0" points="410,44.6 436.4,44.1 436.4,49.4 "/>
<polygon id="XMLID_280_" class="st0" points="439,49.4 439,42.8 451.5,35.9 "/>
<polygon id="XMLID_279_" class="st0" points="443.8,48.3 455.5,35.9 479.3,37.7 475.4,44.1 "/>
<polygon id="XMLID_278_" class="st0" points="479.3,44.4 482.6,38 509.9,40.3 "/>
<polygon id="XMLID_277_" class="st0" points="516.3,41.6 486.9,46.4 547.4,56.5 "/>
<polygon id="XMLID_276_" class="st0" points="535.1,65 542.2,58.4 554.3,59.8 "/>
<polygon id="XMLID_275_" class="st0" points="554.3,57.3 558.3,58.4 573.4,51.7 569.3,50.5 "/>
<polygon id="XMLID_274_" class="st0" points="401.7,74.1 401.7,91.2 426.9,102.8 418.1,92.8 415.8,92.2 414.3,88.4 "/>
<polygon id="XMLID_273_" class="st0" points="477,110.3 470.3,103.8 506.8,84.9 "/>
<polygon id="XMLID_272_" class="st0" points="488.6,105.4 510.3,86.3 501.5,100.3 "/>
<polygon id="XMLID_271_" class="st0" points="504.6,102.8 514,86.3 572,99.9 "/>
<polygon id="XMLID_270_" class="st0" points="512.1,105.4 561.4,102.8 557,119.8 "/>
<polygon id="XMLID_269_" class="st0" points="542.8,67.9 538.8,67.3 555.6,93.1 573.4,97.6 564.4,89.5 562.9,82.5 "/>
<polygon id="XMLID_268_" class="st0" points="569,88.4 566.6,87.2 567.8,81.4 586.8,67.9 578.1,81.4 "/>
<polygon id="XMLID_267_" class="st0" points="588.9,82.5 583.1,80.5 589.8,69 597.5,67.9 600.7,71.8 "/>
<polygon id="XMLID_266_" class="st0" points="605.3,69.7 639.1,73.5 638.7,76.4 "/>
<polygon id="XMLID_265_" class="st0" points="645.2,86.3 653.4,105.8 637.2,138.6 634.2,111 "/>
<polygon id="XMLID_264_" class="st0" points="631.8,120.9 634.2,141.9 614.2,146.4 627.6,138.6 "/>
<polygon id="XMLID_263_" class="st0" points="619,138.6 604.1,130 611.5,143 "/>
<polygon id="XMLID_262_" class="st0" points="592.9,114.9 600.7,126.1 602.3,123.3 "/>
<polygon id="XMLID_261_" class="st0" points="677,104.8 677.8,133.3 666,146.4 666.8,124.1 "/>
<polygon id="XMLID_260_" class="st0" points="662.8,125.6 648.3,123.7 638.8,143 "/>
<polygon id="XMLID_259_" class="st0" points="662.8,130 662.8,151.4 649.4,165.4 "/>
<polygon id="XMLID_258_" class="st0" points="657.5,135.4 646.5,165.4 640.4,146.4 "/>
<polygon id="XMLID_257_" class="st0" points="654.7,196.3 574.9,157.9 635.8,146.4 643.8,170.6 647.5,172 "/>
<polygon id="XMLID_256_" class="st0" points="555.1,122.9 548.9,122.1 540.5,122.5 552.7,138.6 "/>
<polygon id="XMLID_255_" class="st0" points="454.3,163.9 444.1,156.5 461.2,143 "/>
<polygon id="XMLID_254_" class="st0" points="459.5,162.1 478.7,152.7 466.7,141.8 "/>
<polygon id="XMLID_253_" class="st0" points="471.5,140 485.7,124.4 515.9,123.7 "/>
<polygon id="XMLID_252_" class="st0" points="474.5,143 518.3,127.7 483.1,149.2 "/>
<polygon id="XMLID_251_" class="st0" points="482.6,154.1 493,156.6 487,151.3 "/>
<polygon id="XMLID_250_" class="st0" points="512.9,135.4 524.4,127.7 547.8,138.6 "/>
<polygon id="XMLID_249_" class="st0" points="515.1,140 551.9,143 530.6,167.6 "/>
<polygon id="XMLID_248_" class="st0" points="557.6,138.4 556.1,143 547.8,153.8 565.8,152.7 "/>
<polygon id="XMLID_247_" class="st0" points="563.2,138.6 604.1,147.6 572,154.9 "/>
<polygon id="XMLID_246_" class="st0" points="574.6,181.2 570.4,160.3 587.2,169.7 "/>
<polygon id="XMLID_245_" class="st0" points="592.7,172.2 615.4,183.6 604.5,197.3 "/>
<polygon id="XMLID_244_" class="st0" points="515.1,186.7 506.8,162.1 526.3,172.5 "/>
<polygon id="XMLID_243_" class="st0" points="520.1,186.7 544.3,158.3 567.6,180 "/>
<polygon id="XMLID_242_" class="st0" points="539.4,187.4 571.2,183.6 538.2,222 "/>
<polygon id="XMLID_241_" class="st0" points="574.9,187.4 565.8,199 611.5,208.8 "/>
<polygon id="XMLID_240_" class="st0" points="607.2,201.5 616.7,188.1 622.9,210.4 "/>
<polygon id="XMLID_239_" class="st0" points="618.5,213.8 628.2,217 640.4,252.8 626.1,238.9 "/>
<polygon id="XMLID_238_" class="st0" points="577.1,213.8 563.2,203.9 543.8,222 574.9,223 "/>
<polygon id="XMLID_237_" class="st0" points="480.4,194.3 496.6,194.8 494.8,234.7 "/>
<polygon id="XMLID_236_" class="st0" points="500.6,198.1 499,239.8 517.9,218.3 "/>
<polygon id="XMLID_235_" class="st0" points="533.5,208.8 522.1,219 533.5,225.7 "/>
<polygon id="XMLID_234_" class="st0" points="446.5,181.2 452.7,166.7 445.5,162.1 439.5,166.7 440.7,178.4 "/>
<polygon id="XMLID_233_" class="st0" points="440.1,181.2 447.7,184.8 443.2,188.1 "/>
<polygon id="XMLID_232_" class="st0" points="401.7,220.8 401.7,236.5 422.8,230.9 "/>
<polygon id="XMLID_231_" class="st0" points="412.3,222 426.3,228.6 438.1,215.8 "/>
<polygon id="XMLID_230_" class="st0" points="427.8,214.5 440.1,212 431,207.6 "/>
<polygon id="XMLID_229_" class="st0" points="437.3,206.2 449.5,199 452.7,194.3 456.6,205.1 "/>
<polygon id="XMLID_228_" class="st0" points="443.9,209.4 452.7,208.6 447.7,213.4 "/>
<polygon id="XMLID_227_" class="st0" points="436.1,225.7 442.3,217.3 443.9,218.3 "/>
<polygon id="XMLID_226_" class="st0" points="495.6,242.8 550.3,292.7 496.6,269.2 "/>
<polygon id="XMLID_225_" class="st0" points="495.6,274.9 492.5,302.7 515.5,284 "/>
<polygon id="XMLID_224_" class="st0" points="554.7,289.8 570.4,277.8 576.1,264.7 504,243.6 "/>
<polygon id="XMLID_223_" class="st0" points="535.4,232.1 505.9,239.8 520.7,223 "/>
<polygon id="XMLID_222_" class="st0" points="517.9,242.8 542.7,235.5 559,247.4 "/>
<polygon id="XMLID_221_" class="st0" points="565.6,250.4 569.9,253.6 568.9,257.3 540.8,250.4 "/>
<polygon id="XMLID_220_" class="st0" points="494,308.4 520.7,286 548.9,297.2 "/>
<polygon id="XMLID_219_" class="st0" points="554,300.8 582.7,316.7 538.5,354.9 "/>
<polygon id="XMLID_218_" class="st0" points="548.9,302.7 535,352.8 498.6,313.8 "/>
<polygon id="XMLID_217_" class="st0" points="594.4,321 621.5,331.2 608,342.4 "/>
<polygon id="XMLID_216_" class="st0" points="579.3,283.6 591.6,285.1 585.4,301.8 "/>
<polygon id="XMLID_215_" class="st0" points="583.7,267.8 628.4,291.7 628.4,297.2 600.1,281.6 "/>
<polygon id="XMLID_214_" class="st0" points="657.9,200.7 663.6,235.8 664.6,220.2 "/>
<polygon id="XMLID_213_" class="st0" points="660,199.9 662.8,205.1 662.8,196.3 "/>
<polygon id="XMLID_212_" class="st0" points="673.8,279.6 647.1,264.7 672.2,264.7 "/>
<polygon id="XMLID_211_" class="st0" points="671.4,260.5 664.6,260.5 667.4,241.4 673.8,246.4 667.6,256 "/>
<polygon id="XMLID_210_" class="st0" points="643.3,259.7 627.4,247.4 633.6,281.6 "/>
<polygon id="XMLID_209_" class="st0" points="648.1,259.4 654.6,261.4 647.1,261.8 "/>
<polygon id="XMLID_208_" class="st0" points="644.5,268.2 655.6,282.5 633.4,288.3 "/>
<polygon id="XMLID_207_" class="st0" points="633.6,294 660,286 675.4,286 657.9,317.9 "/>
<polygon id="XMLID_206_" class="st0" points="634.5,302.7 654.6,319.7 643.8,321 "/>
<polygon id="XMLID_205_" class="st0" points="640.9,322.4 634.5,311.9 626.8,327.8 "/>
<polygon id="XMLID_204_" class="st0" points="660.5,321 677.2,289.8 680.3,319.8 "/>
<polygon id="XMLID_203_" class="st0" points="637.2,327.8 626.5,332.2 610.8,343.4 625.4,343.4 "/>
<polygon id="XMLID_202_" class="st0" points="589.2,347 606.1,344.8 605,377.3 597.1,369 "/>
<polygon id="XMLID_201_" class="st0" points="610.2,346 624,346.7 610.8,366.7 "/>
<polygon id="XMLID_200_" class="st0" points="594.4,341.8 575.3,331.7 543.2,355.6 570.8,352.8 583.7,343.7 "/>
<polygon id="XMLID_199_" class="st0" points="660.5,325.4 677.5,325.4 677.5,354.9 "/>
<polygon id="XMLID_198_" class="st0" points="676.3,360.3 657.9,327.8 642.8,350.9 "/>
<polygon id="XMLID_197_" class="st0" points="643.8,354.9 678.4,364.6 642.8,371.4 "/>
<polygon id="XMLID_196_" class="st0" points="677.5,368.5 670.4,374.1 663.4,387 645.7,374.7 "/>
<polygon id="XMLID_195_" class="st0" points="640.6,375.6 631.2,388.1 653.7,407.2 "/>
<polygon id="XMLID_194_" class="st0" points="645.7,378.6 662.2,390.8 655.9,402.8 "/>
<polygon id="XMLID_193_" class="st0" points="629.6,401.9 629.6,392.9 653.7,412.1 "/>
<polygon id="XMLID_192_" class="st0" points="618,416 635.5,407.3 653.8,415 "/>
<polygon id="XMLID_191_" class="st0" points="617.3,420.2 649.8,418.7 637.6,428.3 626.5,431.1 "/>
<polygon id="XMLID_190_" class="st0" points="579.3,383.4 597.7,388.8 595.4,373.1 571.2,357.6 "/>
<polygon id="XMLID_189_" class="st0" points="574.6,382.9 566.5,356.8 497.6,363.2 "/>
<polygon id="XMLID_188_" class="st0" points="476.9,291.7 489.8,311 477.6,314.9 "/>
<polygon id="XMLID_187_" class="st0" points="479.3,319.7 495.6,314.9 530.3,354.9 "/>
<polygon id="XMLID_186_" class="st0" points="524.7,356.4 479.3,324.5 483.5,349.7 495.6,358.8 "/>
<polygon id="XMLID_185_" class="st0" points="576.3,411.1 580.3,408.5 574.6,387 494.2,367.4 "/>
<polygon id="XMLID_184_" class="st0" points="552.5,411.1 533.1,392.3 558.3,406 "/>
<polygon id="XMLID_183_" class="st0" points="521.5,387 497.6,374.1 493.1,384.1 "/>
<polygon id="XMLID_182_" class="st0" points="520.7,390.8 504,434.9 485.7,387 "/>
<polygon id="XMLID_181_" class="st0" points="481.3,392.3 502,442.7 470.2,446.3 474.3,407.3 "/>
<polygon id="XMLID_180_" class="st0" points="469.6,451.2 502,447.3 495.2,467.5 "/>
<polygon id="XMLID_179_" class="st0" points="468.5,454.8 501,474.8 464.9,491.8 468.1,471.5 "/>
<polygon id="XMLID_178_" class="st0" points="464.9,495.8 497.6,480.8 473.7,503.1 "/>
<polygon id="XMLID_177_" class="st0" points="429.3,267.8 430.2,274.9 450.4,279.6 "/>
<polygon id="XMLID_176_" class="st0" points="447,273.7 461.8,276 458.7,280.3 "/>
<polygon id="XMLID_175_" class="st0" points="466.7,229.5 464.2,247.4 470,255.1 "/>
<polygon id="XMLID_174_" class="st0" points="465.2,255.9 470.9,260.5 474.5,284 465.2,276 "/>
<polygon id="XMLID_173_" class="st0" points="461.8,282 464.2,279.6 474.5,288.1 "/>
<polygon id="XMLID_172_" class="st0" points="424.8,436.3 448.2,439.3 448.2,453.4 440.5,463.6 "/>
<polygon id="XMLID_171_" class="st0" points="402.3,433 414.4,444.5 402.3,462.6 "/>
<polygon id="XMLID_170_" class="st0" points="406.8,461.7 418.3,445 419,439.3 421.7,437.5 437.6,463.6 "/>
<polygon id="XMLID_169_" class="st0" points="412.6,468.8 412.6,465 417.5,465 "/>
<polygon id="XMLID_168_" class="st0" points="426.3,471.2 428.1,466.9 437.6,466.3 "/>
<polygon id="XMLID_167_" class="st0" points="452.7,433 463.6,436.3 462.5,413.5 "/>
<polygon id="XMLID_166_" class="st0" points="452.7,424.9 459.1,413.5 451.1,410.9 "/>
<polygon id="XMLID_165_" class="st0" points="436.7,555.4 460.5,528.8 433.8,526.6 "/>
<polygon id="XMLID_164_" class="st0" points="433.8,553.4 430.4,531.7 420.2,542.6 "/>
<polygon id="XMLID_163_" class="st0" points="402.3,542.6 402.3,568.2 429.6,555.4 "/>
<polygon id="XMLID_162_" class="st0" points="427.7,551.3 416.6,543.2 412.7,544.3 "/>
<polygon id="XMLID_161_" class="st0" points="437.6,523.1 462.8,525.3 462.8,501 454.9,514.5 "/>
<polygon id="XMLID_160_" class="st0" points="465.8,527.9 465.8,501 472.5,507.2 "/>
<polygon id="XMLID_159_" class="st0" points="417.5,499.9 417.5,514.5 436.5,507.2 "/>
<polygon id="XMLID_158_" class="st0" points="422.9,497.6 439.4,505.1 453.4,487.2 "/>
<polygon id="XMLID_157_" class="st0" points="415,515.1 410.6,521.5 402.3,521.5 402.3,516.4 "/>
<polygon id="XMLID_156_" class="st0" points="389.9,44.6 363.4,44.1 363.4,49.4 "/>
<polygon id="XMLID_155_" class="st0" points="360.9,49.4 360.9,42.8 348.4,35.9 "/>
<polygon id="XMLID_154_" class="st0" points="356.1,48.3 344.4,35.9 320.6,37.7 324.5,44.1 "/>
<polygon id="XMLID_153_" class="st0" points="320.6,44.4 317.3,38 290,40.3 "/>
<polygon id="XMLID_152_" class="st0" points="283.6,41.6 313,46.4 252.5,56.5 "/>
<polygon id="XMLID_151_" class="st0" points="264.8,65 257.7,58.4 245.6,59.8 "/>
<polygon id="XMLID_150_" class="st0" points="245.6,57.3 241.5,58.4 226.5,51.7 230.6,50.5 "/>
<polygon id="XMLID_149_" class="st0" points="398.1,74.1 398.1,91.2 373,102.8 381.8,92.8 384.1,92.2 385.6,88.4 "/>
<polygon id="XMLID_148_" class="st0" points="322.9,110.3 329.6,103.8 293.1,84.9 "/>
<polygon id="XMLID_147_" class="st0" points="311.3,105.4 289.6,86.3 298.4,100.3 "/>
<polygon id="XMLID_146_" class="st0" points="295.3,102.8 285.9,86.3 227.9,99.9 "/>
<polygon id="XMLID_145_" class="st0" points="287.8,105.4 238.5,102.8 242.9,119.8 "/>
<polygon id="XMLID_144_" class="st0" points="257.1,67.9 261.1,67.3 244.3,93.1 226.5,97.6 235.5,89.5 237,82.5 "/>
<polygon id="XMLID_143_" class="st0" points="230.9,88.4 233.3,87.2 232.1,81.4 213.1,67.9 221.8,81.4 "/>
<polygon id="XMLID_142_" class="st0" points="211,82.5 216.8,80.5 210.1,69 202.4,67.9 199.2,71.8 "/>
<polygon id="XMLID_141_" class="st0" points="194.6,69.7 160.8,73.5 161.2,76.4 "/>
<polygon id="XMLID_140_" class="st0" points="154.6,86.3 146.4,105.8 162.7,138.6 165.7,111 "/>
<polygon id="XMLID_139_" class="st0" points="168.1,120.9 165.7,141.9 185.7,146.4 172.2,138.6 "/>
<polygon id="XMLID_138_" class="st0" points="180.9,138.6 195.8,130 188.4,143 "/>
<polygon id="XMLID_137_" class="st0" points="207,114.9 199.2,126.1 197.6,123.3 "/>
<polygon id="XMLID_136_" class="st0" points="122.9,104.8 122.1,133.3 133.9,146.4 133.1,124.1 "/>
<polygon id="XMLID_135_" class="st0" points="137.1,125.6 151.6,123.7 161.1,143 "/>
<polygon id="XMLID_134_" class="st0" points="137.1,130 137.1,151.4 150.5,165.4 "/>
<polygon id="XMLID_133_" class="st0" points="142.4,135.4 153.4,165.4 159.4,146.4 "/>
<polygon id="XMLID_132_" class="st0" points="145.2,196.3 224.9,157.9 164.1,146.4 156.1,170.6 152.4,172 "/>
<polygon id="XMLID_131_" class="st0" points="244.8,122.9 251,122.1 259.3,122.5 247.2,138.6 "/>
<polygon id="XMLID_130_" class="st0" points="345.6,163.9 355.8,156.5 338.7,143 "/>
<polygon id="XMLID_129_" class="st0" points="340.4,162.1 321.2,152.7 333.2,141.8 "/>
<polygon id="XMLID_128_" class="st0" points="328.3,140 314.2,124.4 284,123.7 "/>
<polygon id="XMLID_127_" class="st0" points="325.4,143 281.6,127.7 316.8,149.2 "/>
<polygon id="XMLID_126_" class="st0" points="317.3,154.1 306.9,156.6 312.9,151.3 "/>
<polygon id="XMLID_125_" class="st0" points="287,135.4 275.5,127.7 252.1,138.6 "/>
<polygon id="XMLID_124_" class="st0" points="284.8,140 248,143 269.3,167.6 "/>
<polygon id="XMLID_123_" class="st0" points="242.2,138.4 243.8,143 252.1,153.8 234.1,152.7 "/>
<polygon id="XMLID_122_" class="st0" points="236.7,138.6 195.8,147.6 227.9,154.9 "/>
<polygon id="XMLID_121_" class="st0" points="225.3,181.2 229.5,160.3 212.7,169.7 "/>
<polygon id="XMLID_120_" class="st0" points="207.1,172.2 184.5,183.6 195.4,197.3 "/>
<polygon id="XMLID_119_" class="st0" points="284.8,186.7 293.1,162.1 273.6,172.5 "/>
<polygon id="XMLID_118_" class="st0" points="279.8,186.7 255.6,158.3 232.3,180 "/>
<polygon id="XMLID_117_" class="st0" points="260.5,187.4 228.7,183.6 261.7,222 "/>
<polygon id="XMLID_116_" class="st0" points="224.9,187.4 234.1,199 188.4,208.8 "/>
<polygon id="XMLID_115_" class="st0" points="192.7,201.5 183.2,188.1 177,210.4 "/>
<polygon id="XMLID_114_" class="st0" points="181.4,213.8 171.7,217 159.4,252.8 173.8,238.9 "/>
<polygon id="XMLID_113_" class="st0" points="222.8,213.8 236.7,203.9 256.1,222 224.9,223 "/>
<polygon id="XMLID_112_" class="st0" points="319.5,194.3 303.3,194.8 305.1,234.7 "/>
<polygon id="XMLID_111_" class="st0" points="299.3,198.1 300.9,239.8 282,218.3 "/>
<polygon id="XMLID_110_" class="st0" points="266.4,208.8 277.8,219 266.4,225.7 "/>
<polygon id="XMLID_109_" class="st0" points="353.4,181.2 347.2,166.7 354.3,162.1 360.4,166.7 359.2,178.4 "/>
<polygon id="XMLID_108_" class="st0" points="359.8,181.2 352.2,184.8 356.7,188.1 "/>
<polygon id="XMLID_107_" class="st0" points="398.1,220.8 398.1,236.5 377.1,230.9 "/>
<polygon id="XMLID_106_" class="st0" points="387.6,222 373.6,228.6 361.8,215.8 "/>
<polygon id="XMLID_105_" class="st0" points="372.1,214.5 359.8,212 368.9,207.6 "/>
<polygon id="XMLID_104_" class="st0" points="362.6,206.2 350.4,199 347.2,194.3 343.3,205.1 "/>
<polygon id="XMLID_103_" class="st0" points="356,209.4 347.2,208.6 352.2,213.4 "/>
<polygon id="XMLID_102_" class="st0" points="363.7,225.7 357.6,217.3 356,218.3 "/>
<polygon id="XMLID_101_" class="st0" points="304.3,242.8 249.6,292.7 303.3,269.2 "/>
<polygon id="XMLID_100_" class="st0" points="304.3,274.9 307.4,302.7 284.4,284 "/>
<polygon id="XMLID_99_" class="st0" points="245.2,289.8 229.5,277.8 223.8,264.7 295.9,243.6 "/>
<polygon id="XMLID_98_" class="st0" points="264.5,232.1 293.9,239.8 279.2,223 "/>
<polygon id="XMLID_97_" class="st0" points="282,242.8 257.2,235.5 240.9,247.4 "/>
<polygon id="XMLID_96_" class="st0" points="234.3,250.4 230,253.6 231,257.3 259,250.4 "/>
<polygon id="XMLID_95_" class="st0" points="305.9,308.4 279.2,286 251,297.2 "/>
<polygon id="XMLID_94_" class="st0" points="245.9,300.8 217.2,316.7 261.4,354.9 "/>
<polygon id="XMLID_93_" class="st0" points="251,302.7 264.9,352.8 301.3,313.8 "/>
<polygon id="XMLID_92_" class="st0" points="205.5,321 178.4,331.2 191.9,342.4 "/>
<polygon id="XMLID_91_" class="st0" points="220.6,283.6 208.3,285.1 214.5,301.8 "/>
<polygon id="XMLID_90_" class="st0" points="216.2,267.8 171.5,291.7 171.5,297.2 199.8,281.6 "/>
<polygon id="XMLID_89_" class="st0" points="142,200.7 136.3,235.8 135.3,220.2 "/>
<polygon id="XMLID_88_" class="st0" points="139.9,199.9 137.1,205.1 137.1,196.3 "/>
<polygon id="XMLID_87_" class="st0" points="126.1,279.6 152.8,264.7 127.7,264.7 "/>
<polygon id="XMLID_86_" class="st0" points="128.5,260.5 135.3,260.5 132.5,241.4 126.1,246.4 132.3,256 "/>
<polygon id="XMLID_85_" class="st0" points="156.6,259.7 172.4,247.4 166.3,281.6 "/>
<polygon id="XMLID_84_" class="st0" points="151.8,259.4 145.3,261.4 152.8,261.8 "/>
<polygon id="XMLID_83_" class="st0" points="155.4,268.2 144.3,282.5 166.5,288.3 "/>
<polygon id="XMLID_82_" class="st0" points="166.3,294 139.9,286 124.5,286 142,317.9 "/>
<polygon id="XMLID_81_" class="st0" points="165.4,302.7 145.3,319.7 156.1,321 "/>
<polygon id="XMLID_80_" class="st0" points="159,322.4 165.4,311.9 173.1,327.8 "/>
<polygon id="XMLID_79_" class="st0" points="139.4,321 122.7,289.8 119.6,319.8 "/>
<polygon id="XMLID_78_" class="st0" points="162.7,327.8 173.4,332.2 189.1,343.4 174.5,343.4 "/>
<polygon id="XMLID_77_" class="st0" points="210.7,347 193.8,344.8 194.9,377.3 202.8,369 "/>
<polygon id="XMLID_76_" class="st0" points="189.6,346 175.9,346.7 189.1,366.7 "/>
<polygon id="XMLID_75_" class="st0" points="205.5,341.8 224.6,331.7 256.7,355.6 229.1,352.8 216.2,343.7 "/>
<polygon id="XMLID_74_" class="st0" points="139.4,325.4 122.4,325.4 122.4,354.9 "/>
<polygon id="XMLID_73_" class="st0" points="123.6,360.3 142,327.8 157.1,350.9 "/>
<polygon id="XMLID_72_" class="st0" points="156.1,354.9 121.5,364.6 157.1,371.4 "/>
<polygon id="XMLID_71_" class="st0" points="122.4,368.5 129.5,374.1 136.5,387 154.2,374.7 "/>
<polygon id="XMLID_70_" class="st0" points="159.3,375.6 168.7,388.1 146.1,407.2 "/>
<polygon id="XMLID_69_" class="st0" points="154.2,378.6 137.6,390.8 144,402.8 "/>
<polygon id="XMLID_68_" class="st0" points="170.3,401.9 170.3,392.9 146.1,412.1 "/>
<polygon id="XMLID_67_" class="st0" points="181.9,416 164.4,407.3 146.1,415 "/>
<polygon id="XMLID_66_" class="st0" points="182.6,420.2 150.1,418.7 162.3,428.3 173.4,431.1 "/>
<polygon id="XMLID_65_" class="st0" points="220.6,383.4 202.2,388.8 204.5,373.1 228.7,357.6 "/>
<polygon id="XMLID_64_" class="st0" points="225.3,382.9 233.4,356.8 302.3,363.2 "/>
<polygon id="XMLID_63_" class="st0" points="323,291.7 310.1,311 322.3,314.9 "/>
<polygon id="XMLID_62_" class="st0" points="320.6,319.7 304.3,314.9 269.6,354.9 "/>
<polygon id="XMLID_61_" class="st0" points="275.2,356.4 320.6,324.5 316.4,349.7 304.3,358.8 "/>
<polygon id="XMLID_60_" class="st0" points="223.6,411.1 219.6,408.5 225.3,387 305.7,367.4 "/>
<polygon id="XMLID_59_" class="st0" points="247.4,411.1 266.8,392.3 241.6,406 "/>
<polygon id="XMLID_58_" class="st0" points="278.4,387 302.3,374.1 306.8,384.1 "/>
<polygon id="XMLID_57_" class="st0" points="279.2,390.8 295.9,434.9 314.2,387 "/>
<polygon id="XMLID_56_" class="st0" points="318.6,392.3 297.9,442.7 329.7,446.3 325.6,407.3 "/>
<polygon id="XMLID_55_" class="st0" points="330.3,451.2 297.9,447.3 304.7,467.5 "/>
<polygon id="XMLID_54_" class="st0" points="331.4,454.8 298.9,474.8 335,491.8 331.8,471.5 "/>
<polygon id="XMLID_53_" class="st0" points="335,495.8 302.3,480.8 326.2,503.1 "/>
<polygon id="XMLID_52_" class="st0" points="370.6,267.8 369.7,274.9 349.5,279.6 "/>
<polygon id="XMLID_51_" class="st0" points="352.9,273.7 338.1,276 341.2,280.3 "/>
<polygon id="XMLID_50_" class="st0" points="333.2,229.5 335.7,247.4 329.9,255.1 "/>
<polygon id="XMLID_49_" class="st0" points="334.7,255.9 329,260.5 325.4,284 334.7,276 "/>
<polygon id="XMLID_48_" class="st0" points="338.1,282 335.7,279.6 325.4,288.1 "/>
<polygon id="XMLID_47_" class="st0" points="375.1,436.3 351.7,439.3 351.7,453.4 359.4,463.6 "/>
<polygon id="XMLID_46_" class="st0" points="397.6,433 385.5,444.5 397.6,462.6 "/>
<polygon id="XMLID_45_" class="st0" points="393.1,461.7 381.6,445 380.9,439.3 378.2,437.5 362.3,463.6 "/>
<polygon id="XMLID_44_" class="st0" points="387.3,468.8 387.3,465 382.4,465 "/>
<polygon id="XMLID_43_" class="st0" points="373.6,471.2 371.8,466.9 362.3,466.3 "/>
<polygon id="XMLID_42_" class="st0" points="347.2,433 336.3,436.3 337.3,413.5 "/>
<polygon id="XMLID_41_" class="st0" points="347.2,424.9 340.8,413.5 348.8,410.9 "/>
<polygon id="XMLID_40_" class="st0" points="363.1,555.4 339.4,528.8 366.1,526.6 "/>
<polygon id="XMLID_39_" class="st0" points="366.1,553.4 369.5,531.7 379.7,542.6 "/>
<polygon id="XMLID_38_" class="st0" points="397.6,542.6 397.6,568.2 370.3,555.4 "/>
<polygon id="XMLID_37_" class="st0" points="372.2,551.3 383.3,543.2 387.2,544.3 "/>
<polygon id="XMLID_36_" class="st0" points="362.3,523.1 337,525.3 337,501 345,514.5 "/>
<polygon id="XMLID_35_" class="st0" points="334.1,527.9 334.1,501 327.4,507.2 "/>
<polygon id="XMLID_34_" class="st0" points="382.4,499.9 382.4,514.5 363.4,507.2 "/>
<polygon id="XMLID_33_" class="st0" points="377,497.6 360.5,505.1 346.4,487.2 "/>
<polygon id="XMLID_32_" class="st0" points="384.8,515.1 389.2,521.5 397.6,521.5 397.6,516.4 "/>
<polygon id="XMLID_31_" class="st1" points="455.6,343.7 445.5,311.9 445.5,297.2 454.4,289.8 467.1,296.5 468.1,311.9 "/>
<polygon id="XMLID_30_" class="st1" points="404.3,302 413,293.2 418.7,305.2 408.3,307.8 "/>
<polygon id="XMLID_29_" class="st1" points="418.7,300.5 422,307.2 428.3,302.7 427.3,293.2 "/>
<polygon id="XMLID_28_" class="st1" points="430.5,298 435.2,288.8 441.5,296.4 436.9,317.4 "/>
<polygon id="XMLID_27_" class="st1" points="427.8,307.2 430,305.1 432.2,311.2 "/>
<polygon id="XMLID_26_" class="st1" points="451.1,438.3 451.9,453.4 462.8,441.1 "/>
<polygon id="XMLID_25_" class="st1" points="402.3,480.8 402.3,495.1 420.5,494 "/>
<polygon id="XMLID_24_" class="st1" points="424.1,492.8 452.7,485.1 408.7,480.8 "/>
<polygon id="XMLID_23_" class="st1" points="455.2,482.4 460.5,477.5 458.1,453.4 450.2,457.4 "/>
<polygon id="XMLID_22_" class="st1" points="452.7,480.8 447.1,460.6 442.4,467.5 422.2,478.5 "/>
<polygon id="XMLID_21_" class="st1" points="457.8,487.9 460.5,497.2 452,509.1 "/>
<polygon id="XMLID_20_" class="st1" points="452,496.9 447.1,513.2 433.8,518.9 "/>
<polygon id="XMLID_19_" class="st1" points="435.3,511.5 417.5,517.4 410.8,530.1 426.3,521.5 "/>
<polygon id="XMLID_18_" class="st1" points="402.3,525.3 402.3,533.3 406.8,530.7 409.8,525.3 "/>
<polygon id="XMLID_17_" class="st1" points="344.3,343.7 354.3,311.9 354.3,297.2 345.5,289.8 332.8,296.5 331.8,311.9 "/>
<polygon id="XMLID_16_" class="st1" points="395.6,302 386.9,293.2 381.2,305.2 391.6,307.8 "/>
<polygon id="XMLID_15_" class="st1" points="381.2,300.5 377.9,307.2 371.6,302.7 372.6,293.2 "/>
<polygon id="XMLID_14_" class="st1" points="369.4,298 364.7,288.8 358.4,296.4 363,317.4 "/>
<polygon id="XMLID_13_" class="st1" points="372.1,307.2 369.9,305.1 367.7,311.2 "/>
<polygon id="XMLID_12_" class="st1" points="348.8,438.3 348,453.4 337,441.1 "/>
<polygon id="XMLID_11_" class="st1" points="397.6,480.8 397.6,495.1 379.4,494 "/>
<polygon id="XMLID_10_" class="st1" points="375.8,492.8 347.2,485.1 391.2,480.8 "/>
<polygon id="XMLID_9_" class="st1" points="344.7,482.4 339.4,477.5 341.7,453.4 349.7,457.4 "/>
<polygon id="XMLID_8_" class="st1" points="347.2,480.8 352.8,460.6 357.5,467.5 377.7,478.5 "/>
<polygon id="XMLID_7_" class="st1" points="342.1,487.9 339.4,497.2 347.9,509.1 "/>
<polygon id="XMLID_6_" class="st1" points="347.9,496.9 352.8,513.2 366.1,518.9 "/>
<polygon id="XMLID_5_" class="st1" points="364.6,511.5 382.4,517.4 389.1,530.1 373.6,521.5 "/>
<polygon id="XMLID_4_" class="st1" points="397.6,525.3 397.6,533.3 393.1,530.7 390.1,525.3 "/>
<polygon id="XMLID_3_" class="st1" points="512.4,191.1 480,183.2 467.4,175.6 465.7,164.2 478.1,156.8 491.7,163.9 "/>
<polygon id="XMLID_2_" class="st1" points="286.2,191.1 318.6,183.2 331.2,175.6 332.9,164.2 320.6,156.8 306.9,163.9 "/>
</svg>
